<svg width="24px" height="24px" viewBox="0 0 24 24" version="1.1" xmlns="http://www.w3.org/2000/svg" xmlns:xlink="http://www.w3.org/1999/xlink">
    <g id="calendar-green-64" stroke="none" stroke-width="1" fill="none" fill-rule="evenodd">
        <path d="M2.0625,2.8125 L21.9375,2.8125 C22.7625,2.8125 23.4375,3.4875 23.4375,4.3125 L23.4375,21.9375 C23.4375,22.7625 22.7625,23.4375 21.9375,23.4375 L2.0625,23.4375 C1.2375,23.4375 0.5625,22.7625 0.5625,21.9375 L0.5625,4.3125 C0.5625,3.4875 1.2375,2.8125 2.0625,2.8125 Z" id="Rectangle-13" stroke="#44AD34" stroke-width="1.125"></path>
        <line x1="0.5625" y1="8.0625" x2="23.4375" y2="8.0625" id="Line" stroke="#44AD34" stroke-width="1.125" stroke-linecap="square"></line>
        <circle id="Oval" stroke="#44AD34" stroke-width="1.125" cx="18.375" cy="12.75" r="1.3125"></circle>
        <circle id="Oval_1_" stroke="#44AD34" stroke-width="1.125" cx="12" cy="12.75" r="1.3125"></circle>
        <circle id="Oval_2_" stroke="#44AD34" stroke-width="1.125" cx="5.625" cy="18.375" r="1.3125"></circle>
        <circle id="Oval_3_" stroke="#44AD34" stroke-width="1.125" cx="18.375" cy="18.375" r="1.3125"></circle>
        <circle id="Oval_4_" stroke="#44AD34" stroke-width="1.125" cx="12" cy="18.375" r="1.3125"></circle>
        <path d="M6.5625,0.375 L6.5625,0.375 C6.8625,0.375 7.125,0.6375 7.125,0.9375 L7.125,4.6875 C7.125,4.9875 6.8625,5.25 6.5625,5.25 L6.5625,5.25 C6.2625,5.25 6,4.9875 6,4.6875 L6,0.9375 C6,0.6375 6.2625,0.375 6.5625,0.375 Z" id="Rectangle" fill="#44AD34" fill-rule="nonzero"></path>
        <path d="M17.4375,0.375 L17.4375,0.375 C17.7375,0.375 18,0.6375 18,0.9375 L18,4.6875 C18,4.9875 17.7375,5.25 17.4375,5.25 L17.4375,5.25 C17.1375,5.25 16.875,4.9875 16.875,4.6875 L16.875,0.9375 C16.875,0.6375 17.1375,0.375 17.4375,0.375 Z" id="Rectangle_1_" fill="#44AD34" fill-rule="nonzero"></path>
        <polyline id="Path-4" stroke="#44AD34" stroke-width="1.125" stroke-linecap="round" stroke-linejoin="round" points="4.125 12.75 5.25 13.875 7.5 11.625"></polyline>
    </g>
</svg>